<svg width="512" height="512" viewBox="0 0 512 512" fill="none" xmlns="http://www.w3.org/2000/svg">
  <defs>
    <linearGradient id="gold" x1="64" y1="64" x2="448" y2="448" gradientUnits="userSpaceOnUse">
      <stop stop-color="#FFF6D6"/>
      <stop offset="0.45" stop-color="#EED08A"/>
      <stop offset="1" stop-color="#B88935"/>
    </linearGradient>
    <linearGradient id="sky" x1="256" y1="32" x2="256" y2="480" gradientUnits="userSpaceOnUse">
      <stop stop-color="#EAF6FF"/>
      <stop offset="1" stop-color="#A7D7FF"/>
    </linearGradient>
    <filter id="glow" x="-50" y="-50" width="612" height="612" filterUnits="userSpaceOnUse">
      <feGaussianBlur stdDeviation="18" result="blur"/>
      <feMerge>
        <feMergeNode in="blur"/>
        <feMergeNode in="SourceGraphic"/>
      </feMerge>
    </filter>
  </defs>
  <rect x="24" y="24" width="464" height="464" rx="96" fill="url(#sky)" opacity="0.18"/>
  <g filter="url(#glow)">
    <path d="M256 76L286 150H360L300 196L324 276L256 228L188 276L212 196L152 150H226L256 76Z" fill="url(#gold)" opacity="0.95"/>
    <path d="M256 164C208 164 170 202 170 250C170 304 214 342 256 372C298 342 342 304 342 250C342 202 304 164 256 164Z" stroke="url(#gold)" stroke-width="16" fill="rgba(255,255,255,0.04)"/>
    <path d="M256 204L270 238L308 240L278 264L288 302L256 282L224 302L234 264L204 240L242 238L256 204Z" fill="url(#gold)"/>
    <circle cx="164" cy="152" r="10" fill="#FFF3C4"/>
    <circle cx="362" cy="148" r="8" fill="#FFF3C4"/>
    <circle cx="130" cy="222" r="7" fill="#CDEBFF"/>
    <circle cx="392" cy="232" r="7" fill="#CDEBFF"/>
    <circle cx="166" cy="356" r="9" fill="#FFF3C4"/>
    <circle cx="348" cy="364" r="10" fill="#FFF3C4"/>
  </g>
</svg>
